<?xml version="1.0" encoding="UTF-8" standalone="no"?>
<svg
   xmlns:dc="http://purl.org/dc/elements/1.1/"
   xmlns:cc="http://creativecommons.org/ns#"
   xmlns:rdf="http://www.w3.org/1999/02/22-rdf-syntax-ns#"
   xmlns:svg="http://www.w3.org/2000/svg"
   xmlns="http://www.w3.org/2000/svg"
   xmlns:sodipodi="http://sodipodi.sourceforge.net/DTD/sodipodi-0.dtd"
   xmlns:inkscape="http://www.inkscape.org/namespaces/inkscape"
   width="210mm"
   height="297mm"
   viewBox="0 0 210 297"
   version="1.1"
   id="svg8"
   inkscape:version="1.0.2-2 (e86c870879, 2021-01-15)"
   sodipodi:docname="back-icon.svg">
  <defs
     id="defs2" />
  <sodipodi:namedview
     id="base"
     pagecolor="#ffffff"
     bordercolor="#666666"
     borderopacity="1.0"
     inkscape:pageopacity="0.0"
     inkscape:pageshadow="2"
     inkscape:zoom="0.35"
     inkscape:cx="400"
     inkscape:cy="560"
     inkscape:document-units="mm"
     inkscape:current-layer="layer1"
     inkscape:document-rotation="0"
     showgrid="false"
     inkscape:window-width="1267"
     inkscape:window-height="1040"
     inkscape:window-x="598"
     inkscape:window-y="16"
     inkscape:window-maximized="0" />
  <metadata
     id="metadata5">
    <rdf:RDF>
      <cc:Work
         rdf:about="">
        <dc:format>image/svg+xml</dc:format>
        <dc:type
           rdf:resource="http://purl.org/dc/dcmitype/StillImage" />
        <dc:title></dc:title>
      </cc:Work>
    </rdf:RDF>
  </metadata>
  <g
     inkscape:label="Layer 1"
     inkscape:groupmode="layer"
     id="layer1">
    <g
       id="g56"
       transform="matrix(0.48215109,0,0,0.47152838,-26.136682,32.522491)">
      <g
         id="g218"
         transform="matrix(0.69219967,0,0,0.73380817,86.630364,52.589434)">
	<g
   id="g216">
		<path
   d="m 45.833,270.143 c -7.797,-7.798 -7.797,-20.487 0.018,-28.302 L 221.145,66.114 c 7.8,-7.82 7.785,-20.484 -0.035,-28.285 -7.821,-7.8 -20.485,-7.785 -28.286,0.035 L 17.549,213.572 c -23.395,23.395 -23.395,61.462 -0.018,84.839 l 175.293,175.725 c 3.908,3.917 9.033,5.875 14.161,5.875 5.11,0 10.222,-1.947 14.125,-5.841 7.82,-7.801 7.836,-20.465 0.035,-28.285 z"
   id="path214" />

	</g>

</g>
      <g
         id="g224"
         transform="matrix(0.69219967,0,0,0.73380817,86.630364,52.589434)">
	<g
   id="g222">
		<path
   d="M 491.999,235.999 H 128.98 c -11.047,0 -20.001,8.954 -20.001,20.001 0,11.047 8.954,20.001 20.001,20.001 h 363.018 c 11.047,0 20.001,-8.954 20.001,-20.001 0,-11.047 -8.954,-20.001 -20,-20.001 z"
   id="path220" />

	</g>

</g>
      <g
         id="g226">
</g>
      <g
         id="g228">
</g>
      <g
         id="g230">
</g>
      <g
         id="g232">
</g>
      <g
         id="g234">
</g>
      <g
         id="g236">
</g>
      <g
         id="g238">
</g>
      <g
         id="g240">
</g>
      <g
         id="g242">
</g>
      <g
         id="g244">
</g>
      <g
         id="g246">
</g>
      <g
         id="g248">
</g>
      <g
         id="g250">
</g>
      <g
         id="g252">
</g>
      <g
         id="g254">
</g>
    </g>
    <g
       style="clip-rule:evenodd;fill-rule:evenodd;image-rendering:optimizeQuality;shape-rendering:geometricPrecision;text-rendering:geometricPrecision"
       id="g101"
       transform="matrix(0.26458333,0,0,0.26458333,284.31364,-116.34239)">
      <path
         fill="none"
         stroke="#645dc3e5"
         stroke-linecap="round"
         stroke-linejoin="round"
         stroke-miterlimit="2.61"
         stroke-width="2"
         d="m 7.05,10.85 h 9.02 A 4.89,4.89 0 0 1 21,15.8 c 0,2.7 -2.17,4.88 -4.93,4.88 h -5.55 m 0,-6.34 L 7,10.85 10.52,7.33"
         id="path92" />
    </g>
  </g>
</svg>
