<?xml version="1.0" encoding="UTF-8" standalone="no"?>
<svg
   xmlns:dc="http://purl.org/dc/elements/1.1/"
   xmlns:cc="http://creativecommons.org/ns#"
   xmlns:rdf="http://www.w3.org/1999/02/22-rdf-syntax-ns#"
   xmlns:svg="http://www.w3.org/2000/svg"
   xmlns="http://www.w3.org/2000/svg"
   xmlns:sodipodi="http://sodipodi.sourceforge.net/DTD/sodipodi-0.dtd"
   xmlns:inkscape="http://www.inkscape.org/namespaces/inkscape"
   version="1.1"
   id="svg64"
   width="48"
   height="48"
   viewBox="0 0 48 48"
   sodipodi:docname="login-icon.svg"
   inkscape:version="1.0.2-2 (e86c870879, 2021-01-15)">
  <metadata
     id="metadata70">
    <rdf:RDF>
      <cc:Work
         rdf:about="">
        <dc:format>image/svg+xml</dc:format>
        <dc:type
           rdf:resource="http://purl.org/dc/dcmitype/StillImage" />
        <dc:title></dc:title>
      </cc:Work>
    </rdf:RDF>
  </metadata>
  <defs
     id="defs68" />
  <sodipodi:namedview
     pagecolor="#ffffff"
     bordercolor="#666666"
     borderopacity="1"
     objecttolerance="10"
     gridtolerance="10"
     guidetolerance="10"
     inkscape:pageopacity="0"
     inkscape:pageshadow="2"
     inkscape:window-width="1042"
     inkscape:window-height="814"
     id="namedview66"
     showgrid="false"
     inkscape:zoom="4.4270833"
     inkscape:cx="28.226467"
     inkscape:cy="34.914018"
     inkscape:window-x="0"
     inkscape:window-y="0"
     inkscape:window-maximized="0"
     inkscape:current-layer="g72"
     inkscape:document-rotation="0" />
  <g
     inkscape:groupmode="layer"
     inkscape:label="Image"
     id="g72">
    <path
       d="m 35.233351,12.473142 c 0,6.578209 -4.906046,11.910665 -10.957748,11.910665 -6.051702,0 -10.957749,-5.332456 -10.957749,-11.910665 0,-6.578218 4.906047,-11.91110253 10.957749,-11.91110253 6.051702,0 10.957748,5.33288453 10.957748,11.91110253 z m 0,0"
       id="path10"
       style="stroke-width:0.107103" />
    <path
       d="M 33.58971,27.006905 H 14.961496 c -5.7395057,0 -10.4096019,5.076403 -10.4096019,11.315262 v 8.33781 c 0,0.98623 0.7363485,1.786646 1.6436424,1.786646 H 42.355669 c 0.907293,0 1.643643,-0.800416 1.643643,-1.786646 v -8.33781 c 0,-6.238859 -4.670097,-11.315262 -10.409602,-11.315262 z m 0,0"
       id="path12"
       style="stroke-width:0.107103" />
  </g>
</svg>
