<?xml version="1.0" encoding="UTF-8" standalone="no"?>
<svg
   xmlns:dc="http://purl.org/dc/elements/1.1/"
   xmlns:cc="http://creativecommons.org/ns#"
   xmlns:rdf="http://www.w3.org/1999/02/22-rdf-syntax-ns#"
   xmlns:svg="http://www.w3.org/2000/svg"
   xmlns="http://www.w3.org/2000/svg"
   xmlns:sodipodi="http://sodipodi.sourceforge.net/DTD/sodipodi-0.dtd"
   xmlns:inkscape="http://www.inkscape.org/namespaces/inkscape"
   version="1.1"
   id="svg98"
   width="50"
   height="50"
   viewBox="0 0 50 50"
   sodipodi:docname="delete-icon.svg"
   inkscape:version="1.0.2-2 (e86c870879, 2021-01-15)">
  <metadata
     id="metadata104">
    <rdf:RDF>
      <cc:Work
         rdf:about="">
        <dc:format>image/svg+xml</dc:format>
        <dc:type
           rdf:resource="http://purl.org/dc/dcmitype/StillImage" />
        <dc:title></dc:title>
      </cc:Work>
    </rdf:RDF>
  </metadata>
  <defs
     id="defs102" />
  <sodipodi:namedview
     pagecolor="#ffffff"
     bordercolor="#666666"
     borderopacity="1"
     objecttolerance="10"
     gridtolerance="10"
     guidetolerance="10"
     inkscape:pageopacity="0"
     inkscape:pageshadow="2"
     inkscape:window-width="1920"
     inkscape:window-height="1017"
     id="namedview100"
     showgrid="false"
     inkscape:zoom="17"
     inkscape:cx="25"
     inkscape:cy="25"
     inkscape:window-x="-8"
     inkscape:window-y="-8"
     inkscape:window-maximized="1"
     inkscape:current-layer="g106"
     inkscape:document-rotation="0" />
  <g
     inkscape:groupmode="layer"
     inkscape:label="Image"
     id="g106">
    <g
       data-name="Layer 17"
       id="Layer_17"
       transform="matrix(0.85972851,0,0,0.79607843,11.126697,12.203922)">
      <path
         class="cls-1"
         d="M 24,31 H 8 A 3,3 0 0 1 5,28 V 9 a 1,1 0 0 1 2,0 v 19 a 1,1 0 0 0 1,1 h 16 a 1,1 0 0 0 1,-1 V 9 a 1,1 0 0 1 2,0 v 19 a 3,3 0 0 1 -3,3 z"
         id="path8" />
      <path
         class="cls-1"
         d="M 28,7 H 4 A 1,1 0 0 1 4,5 h 24 a 1,1 0 0 1 0,2 z"
         id="path10" />
      <path
         class="cls-1"
         d="M 20,7 A 1,1 0 0 1 19,6 V 3 H 13 V 6 A 1,1 0 0 1 11,6 V 2 a 1,1 0 0 1 1,-1 h 8 a 1,1 0 0 1 1,1 v 4 a 1,1 0 0 1 -1,1 z"
         id="path12" />
      <path
         class="cls-1"
         d="M 16,26 A 1,1 0 0 1 15,25 V 11 a 1,1 0 0 1 2,0 v 14 a 1,1 0 0 1 -1,1 z"
         id="path14" />
      <path
         class="cls-1"
         d="M 21,24 A 1,1 0 0 1 20,23 V 13 a 1,1 0 0 1 2,0 v 10 a 1,1 0 0 1 -1,1 z"
         id="path16" />
      <path
         class="cls-1"
         d="M 11,24 A 1,1 0 0 1 10,23 V 13 a 1,1 0 0 1 2,0 v 10 a 1,1 0 0 1 -1,1 z"
         id="path18" />
    </g>
  </g>
</svg>
